<svg width="34" height="34" viewBox="0 0 34 34" fill="none" xmlns="http://www.w3.org/2000/svg">
<path d="M17 0C7.62565 0 0 7.62565 0 17C0 26.3743 7.62565 34 17 34C26.3743 34 34 26.3743 34 17C34 7.62565 26.3743 0 17 0ZM17 2.83333C20.5915 2.83333 23.8454 4.18359 26.3411 6.375C26.0755 6.74577 25.7158 7.19401 25.1458 7.7474C23.9339 8.92057 21.9971 10.3317 19.0365 11.4219C17.0332 7.71973 15.0687 4.9362 13.7682 3.1875C14.8031 2.94954 15.8877 2.83333 17 2.83333ZM10.9792 4.16146C12.1413 5.68327 14.2109 8.50553 16.2917 12.263C10.5309 13.7904 5.24609 13.984 3.14323 13.9896C4.08398 9.6123 7.028 6.00977 10.9792 4.16146ZM28.2891 8.45573C30.0156 10.7412 31.0892 13.569 31.1667 16.6458C29.9049 16.3636 28.0456 16.0869 25.6328 16.0703C24.3766 16.0648 22.9544 16.1533 21.4271 16.3359C21.0729 15.528 20.6911 14.7477 20.3203 13.9896C23.4967 12.7721 25.6605 11.1673 27.0937 9.78385C27.5807 9.30794 27.9626 8.87077 28.2891 8.45573ZM17.5755 14.8307C17.902 15.4893 18.234 16.1644 18.5495 16.8672C12.4954 18.5439 8.14583 23.6794 6.28646 26.2526C4.14486 23.7734 2.83333 20.5417 2.83333 17C2.83333 16.9391 2.83333 16.8838 2.83333 16.8229C4.74805 16.8451 10.8353 16.7122 17.5755 14.8307ZM25.6328 18.8594C28.1618 18.8594 29.9105 19.2135 30.9453 19.4792C30.2868 23.2533 28.1562 26.4906 25.1458 28.599C24.5814 25.2122 23.6517 21.9915 22.5339 19.0365C23.6517 18.9258 24.7087 18.8594 25.6328 18.8594ZM19.6562 19.5234C20.929 22.7552 21.9971 26.3024 22.5339 30.0599C20.8405 30.7738 18.959 31.1667 17 31.1667C13.7516 31.1667 10.7523 30.0765 8.36719 28.2448C9.82259 26.2526 14.1003 20.9512 19.6562 19.5234Z" fill="white"/>
</svg>
