<svg width="34" height="34" viewBox="0 0 34 34" fill="none" xmlns="http://www.w3.org/2000/svg">
<path d="M17 0C7.61175 0 0 7.61175 0 17C0 24.9659 5.48533 31.6313 12.8803 33.4758C12.801 33.2463 12.75 32.98 12.75 32.6499V29.7443C12.0601 29.7443 10.9041 29.7443 10.6137 29.7443C9.45058 29.7443 8.41642 29.2443 7.91492 28.3149C7.35817 27.2822 7.26183 25.7026 5.882 24.7364C5.47258 24.4148 5.78425 24.0479 6.256 24.0975C7.12725 24.344 7.84975 24.9418 8.52975 25.8287C9.20692 26.7169 9.52567 26.9181 10.7907 26.9181C11.4042 26.9181 12.3222 26.8827 13.1863 26.7467C13.651 25.5666 14.4542 24.48 15.436 23.9672C9.775 23.3849 7.07342 20.5686 7.07342 16.745C7.07342 15.0988 7.77467 13.5065 8.96608 12.1649C8.57508 10.8333 8.0835 8.1175 9.11625 7.08333C11.6634 7.08333 13.2033 8.73517 13.5731 9.18142C14.8424 8.7465 16.2364 8.5 17.7012 8.5C19.1689 8.5 20.5686 8.7465 21.8407 9.18425C22.2062 8.74083 23.7476 7.08333 26.3004 7.08333C27.3374 8.11892 26.8402 10.846 26.4449 12.1748C27.6292 13.5136 28.3263 15.1017 28.3263 16.745C28.3263 20.5658 25.6289 23.3807 19.9764 23.9658C21.5319 24.7775 22.6667 27.0583 22.6667 28.7768V32.6499C22.6667 32.7973 22.6341 32.9035 22.6171 33.0296C29.2414 30.7077 34 24.4177 34 17C34 7.61175 26.3882 0 17 0Z" fill="white"/>
</svg>
