<svg width="34" height="34" viewBox="0 0 34 34" fill="none" xmlns="http://www.w3.org/2000/svg">
<path d="M17 0C7.61175 0 0 7.61175 0 17C0 26.3882 7.61175 34 17 34C26.3882 34 34 26.3882 34 17C34 7.61175 26.3882 0 17 0ZM26.1573 13.5079C26.1658 13.6963 26.1701 13.8833 26.1701 14.0703C26.1701 19.8333 21.7855 26.4747 13.7657 26.4747C11.3022 26.4747 9.01142 25.7536 7.08333 24.5154C7.42475 24.5565 7.77183 24.5749 8.12458 24.5749C10.1688 24.5749 12.0473 23.8793 13.5377 22.7077C11.6294 22.6723 10.0187 21.4115 9.46475 19.6803C9.73108 19.7313 10.0045 19.7583 10.285 19.7583C10.6831 19.7583 11.0698 19.7044 11.4339 19.6053C9.43925 19.2058 7.93617 17.4434 7.93617 15.3312C7.93617 15.3127 7.93617 15.2943 7.93617 15.2759C8.52408 15.6032 9.19558 15.7987 9.911 15.8213C8.74225 15.0407 7.97158 13.7048 7.97158 12.1933C7.97158 11.3928 8.1855 10.6434 8.56092 10.0017C10.7114 12.6395 13.9244 14.3763 17.5468 14.5577C17.4732 14.2389 17.4349 13.906 17.4349 13.5646C17.4349 11.1577 19.3871 9.20408 21.794 9.20408C23.0478 9.20408 24.1811 9.73392 24.9758 10.5811C25.9689 10.3842 26.9025 10.0229 27.7454 9.52283C27.4196 10.5414 26.7283 11.3942 25.8273 11.9354C26.7084 11.8306 27.5485 11.5968 28.3319 11.2497C27.7497 12.1252 27.0116 12.8917 26.1573 13.5079Z" fill="white"/>
</svg>
