<svg width="143" height="25" viewBox="0 0 143 25" fill="none" xmlns="http://www.w3.org/2000/svg">
<path d="M15.422 23.83C13.6313 24.238 11.9653 24.442 10.424 24.442C8.90533 24.442 7.57933 24.2493 6.446 23.864C5.33533 23.456 4.304 22.81 3.352 21.926C1.33467 20.0447 0.326 16.928 0.326 12.576C0.326 10.4227 0.620667 8.564 1.21 7C1.79933 5.41333 2.604 4.18933 3.624 3.328C5.528 1.71867 7.82867 0.913999 10.526 0.913999C12.226 0.913999 13.9373 1.16333 15.66 1.662L14.878 5.164C13.586 4.91467 12.3847 4.79 11.274 4.79C9.438 4.79 7.98733 5.368 6.922 6.524C5.85667 7.65733 5.324 9.66333 5.324 12.542C5.324 15.398 5.868 17.4267 6.956 18.628C8.044 19.8067 9.55133 20.396 11.478 20.396C12.8153 20.396 14.028 20.3053 15.116 20.124L15.422 23.83ZM33.9424 23.422C32.7864 24.0567 31.5171 24.374 30.1344 24.374C28.7744 24.374 27.7658 23.8527 27.1084 22.81C25.7938 23.898 24.2524 24.442 22.4844 24.442C20.7164 24.442 19.3791 24 18.4724 23.116C17.5658 22.2093 17.1124 20.9853 17.1124 19.444C17.1124 18.424 17.3278 17.5513 17.7584 16.826C18.1891 16.1007 18.7444 15.568 19.4244 15.228C20.6711 14.6387 21.9631 14.344 23.3004 14.344C24.6604 14.344 25.7484 14.378 26.5644 14.446V12.78C26.5644 11.6013 26.3264 10.842 25.8504 10.502C25.3744 10.162 24.5584 9.992 23.4024 9.992C22.2691 9.992 20.9884 10.23 19.5604 10.706L18.5744 7.714C19.4131 7.21533 20.4331 6.84133 21.6344 6.592C22.8584 6.32 23.9011 6.184 24.7624 6.184C27.0744 6.184 28.7178 6.68267 29.6924 7.68C30.6898 8.65467 31.1884 10.332 31.1884 12.712V19.852C31.1884 20.4867 31.4718 20.804 32.0384 20.804C32.3331 20.804 32.7524 20.736 33.2964 20.6L33.9424 23.422ZM23.7764 21.28C24.7284 21.28 25.6578 20.9853 26.5644 20.396V16.826C25.9298 16.7807 25.3744 16.758 24.8984 16.758C22.6544 16.758 21.5324 17.4833 21.5324 18.934C21.5324 20.498 22.2804 21.28 23.7764 21.28ZM44.2025 10.06C42.3438 10.06 41.0405 10.5927 40.2925 11.658V24H35.5325V6.558H39.4765L39.8505 8.768C41.1651 7.04533 42.8425 6.184 44.8825 6.184C45.4491 6.184 45.9705 6.24066 46.4465 6.354L45.6645 10.264C45.1658 10.128 44.6785 10.06 44.2025 10.06ZM57.1889 23.694C56.0329 24.1927 54.9109 24.442 53.8229 24.442C52.7349 24.442 51.8395 24.3173 51.1369 24.068C50.4342 23.8187 49.9015 23.5353 49.5389 23.218C49.1989 22.9007 48.9382 22.436 48.7569 21.824C48.5755 21.212 48.4622 20.702 48.4169 20.294C48.3942 19.8633 48.3829 19.274 48.3829 18.526V0.199998H53.1769V18.798C53.1769 19.4553 53.2675 19.92 53.4489 20.192C53.6529 20.464 54.0495 20.6 54.6389 20.6C55.2282 20.6 55.8402 20.5207 56.4749 20.362L57.1889 23.694ZM67.6811 23.694C66.5251 24.1927 65.4031 24.442 64.3151 24.442C63.2271 24.442 62.3317 24.3173 61.6291 24.068C60.9264 23.8187 60.3937 23.5353 60.0311 23.218C59.6911 22.9007 59.4304 22.436 59.2491 21.824C59.0677 21.212 58.9544 20.702 58.9091 20.294C58.8864 19.8633 58.8751 19.274 58.8751 18.526V0.199998H63.6691V18.798C63.6691 19.4553 63.7597 19.92 63.9411 20.192C64.1451 20.464 64.5417 20.6 65.1311 20.6C65.7204 20.6 66.3324 20.5207 66.9671 20.362L67.6811 23.694ZM73.1073 15.772C73.1526 19.172 74.6486 20.872 77.5953 20.872C78.9779 20.872 80.3493 20.6113 81.7093 20.09L82.5253 23.32C80.7799 24.068 78.8419 24.442 76.7113 24.442C71.3393 24.442 68.6532 21.28 68.6532 14.956C68.6532 12.4627 69.3219 10.3887 70.6593 8.734C71.9966 7.07933 73.9233 6.252 76.4393 6.252C78.4566 6.252 80.0093 6.796 81.0973 7.884C82.2079 8.94933 82.7633 10.4453 82.7633 12.372C82.7633 13.5053 82.6159 14.6387 82.3213 15.772H73.1073ZM78.9553 13.188V12.984C78.9553 10.74 78.1619 9.618 76.5753 9.618C74.6713 9.618 73.5266 10.808 73.1413 13.188H78.9553ZM93.0812 24.442C90.7465 24.442 88.8085 23.694 87.2672 22.198C85.7259 20.6793 84.9552 18.4013 84.9552 15.364C84.9552 12.304 85.7145 10.026 87.2332 8.53C88.7519 7.01133 90.7012 6.252 93.0812 6.252C94.4865 6.252 96.0845 6.51267 97.8752 7.034L96.9572 10.468C95.5745 10.1507 94.4639 9.992 93.6252 9.992C92.2879 9.992 91.2565 10.4 90.5312 11.216C89.8285 12.0093 89.4772 13.426 89.4772 15.466C89.4772 17.506 89.8625 18.9227 90.6332 19.716C91.4265 20.5093 92.5259 20.906 93.9312 20.906C94.6565 20.906 95.7672 20.7927 97.2632 20.566L97.8412 23.66C96.0505 24.1813 94.4639 24.442 93.0812 24.442ZM102.345 18.39V9.856L99.2854 9.652V6.864L102.447 6.592V2.614L107.207 2.206V6.558H112.171L111.899 9.856H107.173V18.832C107.173 19.4893 107.275 19.9653 107.479 20.26C107.683 20.532 108.114 20.668 108.771 20.668C109.429 20.668 110.165 20.566 110.981 20.362L111.695 23.728C110.585 24.204 109.451 24.442 108.295 24.442C107.162 24.442 106.301 24.374 105.711 24.238C105.145 24.102 104.669 23.9433 104.283 23.762C103.921 23.5807 103.603 23.32 103.331 22.98C103.082 22.6173 102.889 22.3 102.753 22.028C102.64 21.756 102.549 21.3707 102.481 20.872C102.391 20.192 102.345 19.3647 102.345 18.39ZM128.641 15.33C128.641 18.4807 127.938 20.7927 126.533 22.266C125.127 23.7167 123.28 24.442 120.991 24.442C118.701 24.442 116.877 23.7167 115.517 22.266C114.179 20.8153 113.511 18.5147 113.511 15.364C113.511 12.2133 114.202 9.91267 115.585 8.462C116.99 6.98867 118.826 6.252 121.093 6.252C126.125 6.252 128.641 9.278 128.641 15.33ZM124.017 15.296C124.017 13.2107 123.767 11.794 123.269 11.046C122.77 10.298 122.033 9.924 121.059 9.924C120.107 9.924 119.37 10.298 118.849 11.046C118.35 11.794 118.101 13.2333 118.101 15.364C118.101 18.9907 119.087 20.804 121.059 20.804C121.988 20.804 122.713 20.4073 123.235 19.614C123.756 18.798 124.017 17.3587 124.017 15.296ZM140.226 10.06C138.367 10.06 137.064 10.5927 136.316 11.658V24H131.556V6.558H135.5L135.874 8.768C137.189 7.04533 138.866 6.184 140.906 6.184C141.473 6.184 141.994 6.24066 142.47 6.354L141.688 10.264C141.189 10.128 140.702 10.06 140.226 10.06Z" fill="black"/>
</svg>
